<?xml version="1.0" standalone="no"?>
<!DOCTYPE svg PUBLIC "-//W3C//DTD SVG 20010904//EN"
 "http://www.w3.org/TR/2001/REC-SVG-20010904/DTD/svg10.dtd">
<svg version="1.0" xmlns="http://www.w3.org/2000/svg"
 width="500.000000pt" height="500.000000pt" viewBox="0 0 500.000000 500.000000"
 preserveAspectRatio="xMidYMid meet">
<metadata>
Created by potrace 1.11, written by Peter Selinger 2001-2013
</metadata>
<g transform="translate(0.000000,500.000000) scale(0.100000,-0.100000)"
fill="#000000" stroke="none">
<path d="M2327 4161 c-341 -75 -564 -359 -616 -786 -14 -112 -14 -321 -1 -440
24 -216 60 -336 168 -560 l77 -160 0 -223 0 -223 -440 -183 c-242 -101 -498
-209 -568 -241 -182 -82 -320 -175 -448 -304 -90 -90 -112 -119 -150 -195
l-44 -89 -3 -224 -3 -223 2201 0 2202 0 -4 218 c-4 196 -6 222 -26 273 -64
161 -260 354 -487 479 -91 50 -179 88 -1055 452 -41 17 -78 34 -82 37 -4 4 -8
105 -8 226 l-1 219 75 152 c42 84 89 192 105 241 112 335 108 788 -10 1081
-94 237 -282 409 -509 467 -102 26 -268 29 -373 6z"/>
</g>
</svg>
